<mxfile host="Electron" agent="Mozilla/5.0 (Windows NT 10.0; Win64; x64) AppleWebKit/537.36 (KHTML, like Gecko) draw.io/27.0.9 Chrome/134.0.6998.205 Electron/35.4.0 Safari/537.36" version="27.0.9">
  <diagram name="Page-1" id="Kuo8Ouym2s_dGNzLfiku">
    <mxGraphModel dx="918" dy="601" grid="1" gridSize="10" guides="1" tooltips="1" connect="1" arrows="1" fold="1" page="1" pageScale="1" pageWidth="850" pageHeight="1100" math="0" shadow="0">
      <root>
        <mxCell id="0" />
        <mxCell id="1" parent="0" />
        <mxCell id="d_pmFFSRNxV_FL6ECNN5-1" style="edgeStyle=orthogonalEdgeStyle;rounded=0;orthogonalLoop=1;jettySize=auto;html=1;" edge="1" parent="1" source="d_pmFFSRNxV_FL6ECNN5-3" target="d_pmFFSRNxV_FL6ECNN5-4">
          <mxGeometry relative="1" as="geometry">
            <mxPoint x="1235" y="150" as="targetPoint" />
          </mxGeometry>
        </mxCell>
        <mxCell id="d_pmFFSRNxV_FL6ECNN5-2" style="edgeStyle=orthogonalEdgeStyle;rounded=0;orthogonalLoop=1;jettySize=auto;html=1;entryX=0.5;entryY=1;entryDx=0;entryDy=0;" edge="1" parent="1" source="d_pmFFSRNxV_FL6ECNN5-3" target="d_pmFFSRNxV_FL6ECNN5-5">
          <mxGeometry relative="1" as="geometry">
            <mxPoint x="1115" y="150" as="targetPoint" />
          </mxGeometry>
        </mxCell>
        <mxCell id="d_pmFFSRNxV_FL6ECNN5-3" value="&lt;font style=&quot;font-size: 15px;&quot;&gt;Sales Office&lt;/font&gt;" style="rounded=1;whiteSpace=wrap;html=1;strokeWidth=2;fillColor=#fff2cc;strokeColor=#d6b656;" vertex="1" parent="1">
          <mxGeometry x="1115" y="200" width="120" height="40" as="geometry" />
        </mxCell>
        <mxCell id="d_pmFFSRNxV_FL6ECNN5-4" value="Location" style="ellipse;whiteSpace=wrap;html=1;strokeWidth=2;" vertex="1" parent="1">
          <mxGeometry x="1185" y="110" width="70" height="40" as="geometry" />
        </mxCell>
        <mxCell id="d_pmFFSRNxV_FL6ECNN5-5" value="&lt;u&gt;Office-Number&lt;/u&gt;" style="ellipse;whiteSpace=wrap;html=1;strokeWidth=2;" vertex="1" parent="1">
          <mxGeometry x="1075" y="110" width="90" height="40" as="geometry" />
        </mxCell>
        <mxCell id="d_pmFFSRNxV_FL6ECNN5-6" style="edgeStyle=orthogonalEdgeStyle;rounded=0;orthogonalLoop=1;jettySize=auto;html=1;" edge="1" parent="1" source="d_pmFFSRNxV_FL6ECNN5-8" target="d_pmFFSRNxV_FL6ECNN5-9">
          <mxGeometry relative="1" as="geometry">
            <mxPoint x="1650" y="134.57" as="targetPoint" />
          </mxGeometry>
        </mxCell>
        <mxCell id="d_pmFFSRNxV_FL6ECNN5-7" style="edgeStyle=orthogonalEdgeStyle;rounded=0;orthogonalLoop=1;jettySize=auto;html=1;entryX=0.5;entryY=1;entryDx=0;entryDy=0;" edge="1" parent="1" source="d_pmFFSRNxV_FL6ECNN5-8" target="d_pmFFSRNxV_FL6ECNN5-10">
          <mxGeometry relative="1" as="geometry">
            <mxPoint x="1530" y="134.57" as="targetPoint" />
          </mxGeometry>
        </mxCell>
        <mxCell id="d_pmFFSRNxV_FL6ECNN5-8" value="&lt;font style=&quot;font-size: 15px;&quot;&gt;Employee&lt;/font&gt;" style="rounded=1;whiteSpace=wrap;html=1;strokeWidth=2;fillColor=#fff2cc;strokeColor=#d6b656;" vertex="1" parent="1">
          <mxGeometry x="1530" y="200" width="120" height="40" as="geometry" />
        </mxCell>
        <mxCell id="d_pmFFSRNxV_FL6ECNN5-9" value="Emp-Name" style="ellipse;whiteSpace=wrap;html=1;strokeWidth=2;" vertex="1" parent="1">
          <mxGeometry x="1610" y="94.57" width="80" height="40" as="geometry" />
        </mxCell>
        <mxCell id="d_pmFFSRNxV_FL6ECNN5-10" value="&lt;u&gt;Emp-ID&lt;/u&gt;" style="ellipse;whiteSpace=wrap;html=1;strokeWidth=2;" vertex="1" parent="1">
          <mxGeometry x="1480" y="94.57" width="65" height="40" as="geometry" />
        </mxCell>
        <mxCell id="d_pmFFSRNxV_FL6ECNN5-11" style="edgeStyle=orthogonalEdgeStyle;rounded=0;orthogonalLoop=1;jettySize=auto;html=1;entryX=0;entryY=0.5;entryDx=0;entryDy=0;shape=link;" edge="1" parent="1" source="d_pmFFSRNxV_FL6ECNN5-15" target="d_pmFFSRNxV_FL6ECNN5-8">
          <mxGeometry relative="1" as="geometry" />
        </mxCell>
        <mxCell id="d_pmFFSRNxV_FL6ECNN5-12" value="&lt;font style=&quot;font-size: 13px;&quot;&gt;&lt;b&gt;M&lt;/b&gt;&lt;/font&gt;" style="edgeLabel;html=1;align=center;verticalAlign=middle;resizable=0;points=[];" vertex="1" connectable="0" parent="d_pmFFSRNxV_FL6ECNN5-11">
          <mxGeometry x="0.5048" y="1" relative="1" as="geometry">
            <mxPoint as="offset" />
          </mxGeometry>
        </mxCell>
        <mxCell id="d_pmFFSRNxV_FL6ECNN5-13" style="edgeStyle=orthogonalEdgeStyle;rounded=0;orthogonalLoop=1;jettySize=auto;html=1;entryX=1;entryY=0.5;entryDx=0;entryDy=0;shape=link;" edge="1" parent="1" source="d_pmFFSRNxV_FL6ECNN5-15" target="d_pmFFSRNxV_FL6ECNN5-3">
          <mxGeometry relative="1" as="geometry" />
        </mxCell>
        <mxCell id="d_pmFFSRNxV_FL6ECNN5-14" value="&lt;font style=&quot;font-size: 13px;&quot;&gt;&lt;b&gt;1&lt;/b&gt;&lt;/font&gt;" style="edgeLabel;html=1;align=center;verticalAlign=middle;resizable=0;points=[];" vertex="1" connectable="0" parent="d_pmFFSRNxV_FL6ECNN5-13">
          <mxGeometry x="0.46" y="1" relative="1" as="geometry">
            <mxPoint as="offset" />
          </mxGeometry>
        </mxCell>
        <mxCell id="d_pmFFSRNxV_FL6ECNN5-15" value="&lt;font style=&quot;font-size: 15px;&quot;&gt;Assigned&lt;/font&gt;" style="shape=rhombus;perimeter=rhombusPerimeter;whiteSpace=wrap;html=1;align=center;strokeWidth=2;fillColor=#dae8fc;strokeColor=#6c8ebf;" vertex="1" parent="1">
          <mxGeometry x="1350" y="190" width="90" height="60" as="geometry" />
        </mxCell>
        <mxCell id="d_pmFFSRNxV_FL6ECNN5-16" style="edgeStyle=orthogonalEdgeStyle;rounded=0;orthogonalLoop=1;jettySize=auto;html=1;exitX=1;exitY=0.5;exitDx=0;exitDy=0;" edge="1" parent="1" source="d_pmFFSRNxV_FL6ECNN5-20">
          <mxGeometry relative="1" as="geometry">
            <mxPoint x="1592.21" y="240.0000000000001" as="targetPoint" />
            <mxPoint x="1432.2099999999996" y="375.0000000000001" as="sourcePoint" />
          </mxGeometry>
        </mxCell>
        <mxCell id="d_pmFFSRNxV_FL6ECNN5-17" value="&lt;font style=&quot;font-size: 13px;&quot;&gt;&lt;b&gt;1&lt;/b&gt;&lt;/font&gt;" style="edgeLabel;html=1;align=center;verticalAlign=middle;resizable=0;points=[];" vertex="1" connectable="0" parent="d_pmFFSRNxV_FL6ECNN5-16">
          <mxGeometry x="0.803" y="2" relative="1" as="geometry">
            <mxPoint as="offset" />
          </mxGeometry>
        </mxCell>
        <mxCell id="d_pmFFSRNxV_FL6ECNN5-18" style="edgeStyle=orthogonalEdgeStyle;rounded=0;orthogonalLoop=1;jettySize=auto;html=1;entryX=0.5;entryY=1;entryDx=0;entryDy=0;shape=link;" edge="1" parent="1" source="d_pmFFSRNxV_FL6ECNN5-20" target="d_pmFFSRNxV_FL6ECNN5-3">
          <mxGeometry relative="1" as="geometry">
            <Array as="points">
              <mxPoint x="1285" y="280" />
              <mxPoint x="1175" y="280" />
            </Array>
          </mxGeometry>
        </mxCell>
        <mxCell id="d_pmFFSRNxV_FL6ECNN5-19" value="&lt;font style=&quot;font-size: 13px;&quot;&gt;&lt;b&gt;1&lt;/b&gt;&lt;/font&gt;" style="edgeLabel;html=1;align=center;verticalAlign=middle;resizable=0;points=[];" vertex="1" connectable="0" parent="d_pmFFSRNxV_FL6ECNN5-18">
          <mxGeometry x="0.7833" relative="1" as="geometry">
            <mxPoint as="offset" />
          </mxGeometry>
        </mxCell>
        <mxCell id="d_pmFFSRNxV_FL6ECNN5-20" value="&lt;span style=&quot;font-size: 15px;&quot;&gt;Manage&lt;/span&gt;" style="shape=rhombus;perimeter=rhombusPerimeter;whiteSpace=wrap;html=1;align=center;strokeWidth=2;fillColor=#dae8fc;strokeColor=#6c8ebf;" vertex="1" parent="1">
          <mxGeometry x="1235" y="330" width="100" height="60" as="geometry" />
        </mxCell>
        <mxCell id="d_pmFFSRNxV_FL6ECNN5-21" style="edgeStyle=orthogonalEdgeStyle;rounded=0;orthogonalLoop=1;jettySize=auto;html=1;exitX=0.5;exitY=0;exitDx=0;exitDy=0;entryX=0.5;entryY=1;entryDx=0;entryDy=0;" edge="1" parent="1" source="d_pmFFSRNxV_FL6ECNN5-23" target="d_pmFFSRNxV_FL6ECNN5-33">
          <mxGeometry relative="1" as="geometry">
            <mxPoint x="691.0000000000002" y="150" as="targetPoint" />
          </mxGeometry>
        </mxCell>
        <mxCell id="d_pmFFSRNxV_FL6ECNN5-22" style="edgeStyle=orthogonalEdgeStyle;rounded=0;orthogonalLoop=1;jettySize=auto;html=1;exitX=0.5;exitY=0;exitDx=0;exitDy=0;" edge="1" parent="1" source="d_pmFFSRNxV_FL6ECNN5-23">
          <mxGeometry relative="1" as="geometry">
            <mxPoint x="851.0000000000002" y="150" as="targetPoint" />
          </mxGeometry>
        </mxCell>
        <mxCell id="d_pmFFSRNxV_FL6ECNN5-23" value="&lt;font style=&quot;font-size: 15px;&quot;&gt;Property&lt;/font&gt;" style="rounded=1;arcSize=10;whiteSpace=wrap;html=1;align=center;strokeWidth=2;fillColor=#fff2cc;strokeColor=#d6b656;" vertex="1" parent="1">
          <mxGeometry x="701" y="200" width="120" height="40" as="geometry" />
        </mxCell>
        <mxCell id="d_pmFFSRNxV_FL6ECNN5-24" value="Location" style="ellipse;whiteSpace=wrap;html=1;strokeWidth=2;" vertex="1" parent="1">
          <mxGeometry x="821" y="110" width="70" height="40" as="geometry" />
        </mxCell>
        <mxCell id="d_pmFFSRNxV_FL6ECNN5-25" style="edgeStyle=orthogonalEdgeStyle;rounded=0;orthogonalLoop=1;jettySize=auto;html=1;entryX=0;entryY=0.5;entryDx=0;entryDy=0;endArrow=none;startFill=0;" edge="1" parent="1" source="d_pmFFSRNxV_FL6ECNN5-26" target="d_pmFFSRNxV_FL6ECNN5-24">
          <mxGeometry relative="1" as="geometry" />
        </mxCell>
        <mxCell id="d_pmFFSRNxV_FL6ECNN5-26" value="Adderss" style="ellipse;whiteSpace=wrap;html=1;strokeWidth=2;" vertex="1" parent="1">
          <mxGeometry x="771" y="60" width="50" height="30" as="geometry" />
        </mxCell>
        <mxCell id="d_pmFFSRNxV_FL6ECNN5-27" value="City" style="ellipse;whiteSpace=wrap;html=1;strokeWidth=2;" vertex="1" parent="1">
          <mxGeometry x="821" y="30" width="50" height="30" as="geometry" />
        </mxCell>
        <mxCell id="d_pmFFSRNxV_FL6ECNN5-28" value="State" style="ellipse;whiteSpace=wrap;html=1;strokeWidth=2;" vertex="1" parent="1">
          <mxGeometry x="851" y="60" width="50" height="30" as="geometry" />
        </mxCell>
        <mxCell id="d_pmFFSRNxV_FL6ECNN5-29" style="edgeStyle=orthogonalEdgeStyle;rounded=0;orthogonalLoop=1;jettySize=auto;html=1;entryX=1;entryY=0.5;entryDx=0;entryDy=0;endArrow=none;startFill=0;" edge="1" parent="1" source="d_pmFFSRNxV_FL6ECNN5-30" target="d_pmFFSRNxV_FL6ECNN5-24">
          <mxGeometry relative="1" as="geometry" />
        </mxCell>
        <mxCell id="d_pmFFSRNxV_FL6ECNN5-30" value="Zip-Code" style="ellipse;whiteSpace=wrap;html=1;strokeWidth=2;" vertex="1" parent="1">
          <mxGeometry x="890" y="30" width="70" height="30" as="geometry" />
        </mxCell>
        <mxCell id="d_pmFFSRNxV_FL6ECNN5-31" style="edgeStyle=orthogonalEdgeStyle;rounded=0;orthogonalLoop=1;jettySize=auto;html=1;entryX=0.352;entryY=0.079;entryDx=0;entryDy=0;entryPerimeter=0;endArrow=none;startFill=0;" edge="1" parent="1" source="d_pmFFSRNxV_FL6ECNN5-27" target="d_pmFFSRNxV_FL6ECNN5-24">
          <mxGeometry relative="1" as="geometry" />
        </mxCell>
        <mxCell id="d_pmFFSRNxV_FL6ECNN5-32" style="edgeStyle=orthogonalEdgeStyle;rounded=0;orthogonalLoop=1;jettySize=auto;html=1;entryX=0.769;entryY=0.121;entryDx=0;entryDy=0;entryPerimeter=0;endArrow=none;startFill=0;" edge="1" parent="1" source="d_pmFFSRNxV_FL6ECNN5-28" target="d_pmFFSRNxV_FL6ECNN5-24">
          <mxGeometry relative="1" as="geometry" />
        </mxCell>
        <mxCell id="d_pmFFSRNxV_FL6ECNN5-33" value="&lt;u&gt;Property-ID&lt;/u&gt;" style="ellipse;whiteSpace=wrap;html=1;strokeWidth=2;" vertex="1" parent="1">
          <mxGeometry x="630" y="110" width="80" height="40" as="geometry" />
        </mxCell>
        <mxCell id="d_pmFFSRNxV_FL6ECNN5-34" style="edgeStyle=orthogonalEdgeStyle;rounded=0;orthogonalLoop=1;jettySize=auto;html=1;entryX=0;entryY=0.5;entryDx=0;entryDy=0;" edge="1" parent="1" source="d_pmFFSRNxV_FL6ECNN5-38" target="d_pmFFSRNxV_FL6ECNN5-3">
          <mxGeometry relative="1" as="geometry" />
        </mxCell>
        <mxCell id="d_pmFFSRNxV_FL6ECNN5-35" value="&lt;font style=&quot;font-size: 13px;&quot;&gt;&lt;b&gt;1&lt;/b&gt;&lt;/font&gt;" style="edgeLabel;html=1;align=center;verticalAlign=middle;resizable=0;points=[];" vertex="1" connectable="0" parent="d_pmFFSRNxV_FL6ECNN5-34">
          <mxGeometry x="0.4198" relative="1" as="geometry">
            <mxPoint as="offset" />
          </mxGeometry>
        </mxCell>
        <mxCell id="d_pmFFSRNxV_FL6ECNN5-36" style="edgeStyle=orthogonalEdgeStyle;rounded=0;orthogonalLoop=1;jettySize=auto;html=1;entryX=1;entryY=0.5;entryDx=0;entryDy=0;shape=link;exitX=0;exitY=0.5;exitDx=0;exitDy=0;" edge="1" parent="1" source="d_pmFFSRNxV_FL6ECNN5-38" target="d_pmFFSRNxV_FL6ECNN5-23">
          <mxGeometry relative="1" as="geometry">
            <mxPoint x="891.0000000000005" y="225.00000000000023" as="sourcePoint" />
          </mxGeometry>
        </mxCell>
        <mxCell id="d_pmFFSRNxV_FL6ECNN5-37" value="&lt;font style=&quot;font-size: 13px;&quot;&gt;&lt;b&gt;M&lt;/b&gt;&lt;/font&gt;" style="edgeLabel;html=1;align=center;verticalAlign=middle;resizable=0;points=[];" vertex="1" connectable="0" parent="d_pmFFSRNxV_FL6ECNN5-36">
          <mxGeometry x="0.4743" y="1" relative="1" as="geometry">
            <mxPoint as="offset" />
          </mxGeometry>
        </mxCell>
        <mxCell id="d_pmFFSRNxV_FL6ECNN5-38" value="&lt;font style=&quot;font-size: 15px;&quot;&gt;Listed&lt;/font&gt;" style="shape=rhombus;perimeter=rhombusPerimeter;whiteSpace=wrap;html=1;align=center;strokeWidth=2;fillColor=#dae8fc;strokeColor=#6c8ebf;" vertex="1" parent="1">
          <mxGeometry x="950" y="195" width="80" height="50" as="geometry" />
        </mxCell>
        <mxCell id="d_pmFFSRNxV_FL6ECNN5-39" style="edgeStyle=orthogonalEdgeStyle;rounded=0;orthogonalLoop=1;jettySize=auto;html=1;" edge="1" parent="1" source="d_pmFFSRNxV_FL6ECNN5-41" target="d_pmFFSRNxV_FL6ECNN5-42">
          <mxGeometry relative="1" as="geometry">
            <mxPoint x="1124.9985714285717" y="380" as="targetPoint" />
          </mxGeometry>
        </mxCell>
        <mxCell id="d_pmFFSRNxV_FL6ECNN5-40" style="edgeStyle=orthogonalEdgeStyle;rounded=0;orthogonalLoop=1;jettySize=auto;html=1;entryX=0.5;entryY=1;entryDx=0;entryDy=0;" edge="1" parent="1" source="d_pmFFSRNxV_FL6ECNN5-41" target="d_pmFFSRNxV_FL6ECNN5-43">
          <mxGeometry relative="1" as="geometry">
            <mxPoint x="1004.9985714285716" y="380" as="targetPoint" />
          </mxGeometry>
        </mxCell>
        <mxCell id="d_pmFFSRNxV_FL6ECNN5-41" value="&lt;font style=&quot;font-size: 15px;&quot;&gt;Owner&lt;/font&gt;" style="rounded=1;whiteSpace=wrap;html=1;strokeWidth=2;fillColor=#fff2cc;strokeColor=#d6b656;" vertex="1" parent="1">
          <mxGeometry x="1004.9985714285716" y="430" width="120" height="40" as="geometry" />
        </mxCell>
        <mxCell id="d_pmFFSRNxV_FL6ECNN5-42" value="Owner-Name" style="ellipse;whiteSpace=wrap;html=1;strokeWidth=2;" vertex="1" parent="1">
          <mxGeometry x="1074.9985714285717" y="340" width="85" height="40" as="geometry" />
        </mxCell>
        <mxCell id="d_pmFFSRNxV_FL6ECNN5-43" value="&lt;u&gt;Owner-ID&lt;/u&gt;" style="ellipse;whiteSpace=wrap;html=1;strokeWidth=2;" vertex="1" parent="1">
          <mxGeometry x="979.9985714285716" y="340" width="65" height="40" as="geometry" />
        </mxCell>
        <mxCell id="d_pmFFSRNxV_FL6ECNN5-44" style="edgeStyle=orthogonalEdgeStyle;rounded=0;orthogonalLoop=1;jettySize=auto;html=1;entryX=0.5;entryY=1;entryDx=0;entryDy=0;" edge="1" parent="1" source="d_pmFFSRNxV_FL6ECNN5-49" target="d_pmFFSRNxV_FL6ECNN5-23">
          <mxGeometry relative="1" as="geometry" />
        </mxCell>
        <mxCell id="d_pmFFSRNxV_FL6ECNN5-45" value="&lt;b&gt;N&lt;/b&gt;" style="edgeLabel;html=1;align=center;verticalAlign=middle;resizable=0;points=[];" vertex="1" connectable="0" parent="d_pmFFSRNxV_FL6ECNN5-44">
          <mxGeometry x="0.6633" relative="1" as="geometry">
            <mxPoint as="offset" />
          </mxGeometry>
        </mxCell>
        <mxCell id="d_pmFFSRNxV_FL6ECNN5-46" style="edgeStyle=orthogonalEdgeStyle;rounded=0;orthogonalLoop=1;jettySize=auto;html=1;entryX=0;entryY=0.5;entryDx=0;entryDy=0;shape=link;" edge="1" parent="1" source="d_pmFFSRNxV_FL6ECNN5-49" target="d_pmFFSRNxV_FL6ECNN5-41">
          <mxGeometry relative="1" as="geometry" />
        </mxCell>
        <mxCell id="d_pmFFSRNxV_FL6ECNN5-47" value="&lt;font style=&quot;font-size: 13px;&quot;&gt;&lt;b&gt;M&lt;/b&gt;&lt;/font&gt;" style="edgeLabel;html=1;align=center;verticalAlign=middle;resizable=0;points=[];" vertex="1" connectable="0" parent="d_pmFFSRNxV_FL6ECNN5-46">
          <mxGeometry x="0.4857" y="3" relative="1" as="geometry">
            <mxPoint as="offset" />
          </mxGeometry>
        </mxCell>
        <mxCell id="d_pmFFSRNxV_FL6ECNN5-48" style="edgeStyle=orthogonalEdgeStyle;rounded=0;orthogonalLoop=1;jettySize=auto;html=1;entryX=0.5;entryY=1;entryDx=0;entryDy=0;exitX=0;exitY=0;exitDx=0;exitDy=0;" edge="1" parent="1" source="d_pmFFSRNxV_FL6ECNN5-49" target="d_pmFFSRNxV_FL6ECNN5-50">
          <mxGeometry relative="1" as="geometry">
            <Array as="points">
              <mxPoint x="838" y="420" />
              <mxPoint x="788" y="420" />
            </Array>
          </mxGeometry>
        </mxCell>
        <mxCell id="d_pmFFSRNxV_FL6ECNN5-49" value="&lt;font style=&quot;font-size: 15px;&quot;&gt;Own&lt;/font&gt;" style="shape=rhombus;perimeter=rhombusPerimeter;whiteSpace=wrap;html=1;align=center;strokeWidth=2;fillColor=#dae8fc;strokeColor=#6c8ebf;" vertex="1" parent="1">
          <mxGeometry x="820" y="425" width="70" height="50" as="geometry" />
        </mxCell>
        <mxCell id="d_pmFFSRNxV_FL6ECNN5-50" value="Owned-Percent" style="ellipse;whiteSpace=wrap;html=1;strokeWidth=2;" vertex="1" parent="1">
          <mxGeometry x="740" y="360" width="95" height="40" as="geometry" />
        </mxCell>
        <mxCell id="d_pmFFSRNxV_FL6ECNN5-51" value="&lt;font style=&quot;font-size: 16px;&quot;&gt;Sales-Offices&lt;/font&gt;" style="shape=table;startSize=30;container=1;collapsible=1;childLayout=tableLayout;fixedRows=1;rowLines=0;fontStyle=1;align=center;resizeLast=1;html=1;strokeWidth=2;fillColor=#e51400;fontColor=#ffffff;strokeColor=#B20000;" vertex="1" parent="1">
          <mxGeometry x="1204.9999999999998" y="810" width="180" height="150" as="geometry" />
        </mxCell>
        <mxCell id="d_pmFFSRNxV_FL6ECNN5-52" value="" style="shape=tableRow;horizontal=0;startSize=0;swimlaneHead=0;swimlaneBody=0;fillColor=none;collapsible=0;dropTarget=0;points=[[0,0.5],[1,0.5]];portConstraint=eastwest;top=0;left=0;right=0;bottom=1;" vertex="1" parent="d_pmFFSRNxV_FL6ECNN5-51">
          <mxGeometry y="30" width="180" height="30" as="geometry" />
        </mxCell>
        <mxCell id="d_pmFFSRNxV_FL6ECNN5-53" value="PK" style="shape=partialRectangle;connectable=0;fillColor=none;top=0;left=0;bottom=0;right=0;fontStyle=1;overflow=hidden;whiteSpace=wrap;html=1;" vertex="1" parent="d_pmFFSRNxV_FL6ECNN5-52">
          <mxGeometry width="30" height="30" as="geometry">
            <mxRectangle width="30" height="30" as="alternateBounds" />
          </mxGeometry>
        </mxCell>
        <mxCell id="d_pmFFSRNxV_FL6ECNN5-54" value="Office-Number" style="shape=partialRectangle;connectable=0;fillColor=none;top=0;left=0;bottom=0;right=0;align=left;spacingLeft=6;fontStyle=5;overflow=hidden;whiteSpace=wrap;html=1;" vertex="1" parent="d_pmFFSRNxV_FL6ECNN5-52">
          <mxGeometry x="30" width="150" height="30" as="geometry">
            <mxRectangle width="150" height="30" as="alternateBounds" />
          </mxGeometry>
        </mxCell>
        <mxCell id="d_pmFFSRNxV_FL6ECNN5-55" value="" style="shape=tableRow;horizontal=0;startSize=0;swimlaneHead=0;swimlaneBody=0;fillColor=none;collapsible=0;dropTarget=0;points=[[0,0.5],[1,0.5]];portConstraint=eastwest;top=0;left=0;right=0;bottom=0;" vertex="1" parent="d_pmFFSRNxV_FL6ECNN5-51">
          <mxGeometry y="60" width="180" height="30" as="geometry" />
        </mxCell>
        <mxCell id="d_pmFFSRNxV_FL6ECNN5-56" value="" style="shape=partialRectangle;connectable=0;fillColor=none;top=0;left=0;bottom=0;right=0;editable=1;overflow=hidden;whiteSpace=wrap;html=1;" vertex="1" parent="d_pmFFSRNxV_FL6ECNN5-55">
          <mxGeometry width="30" height="30" as="geometry">
            <mxRectangle width="30" height="30" as="alternateBounds" />
          </mxGeometry>
        </mxCell>
        <mxCell id="d_pmFFSRNxV_FL6ECNN5-57" value="Office-Number" style="shape=partialRectangle;connectable=0;fillColor=none;top=0;left=0;bottom=0;right=0;align=left;spacingLeft=6;overflow=hidden;whiteSpace=wrap;html=1;" vertex="1" parent="d_pmFFSRNxV_FL6ECNN5-55">
          <mxGeometry x="30" width="150" height="30" as="geometry">
            <mxRectangle width="150" height="30" as="alternateBounds" />
          </mxGeometry>
        </mxCell>
        <mxCell id="d_pmFFSRNxV_FL6ECNN5-58" value="" style="shape=tableRow;horizontal=0;startSize=0;swimlaneHead=0;swimlaneBody=0;fillColor=none;collapsible=0;dropTarget=0;points=[[0,0.5],[1,0.5]];portConstraint=eastwest;top=0;left=0;right=0;bottom=0;" vertex="1" parent="d_pmFFSRNxV_FL6ECNN5-51">
          <mxGeometry y="90" width="180" height="30" as="geometry" />
        </mxCell>
        <mxCell id="d_pmFFSRNxV_FL6ECNN5-59" value="" style="shape=partialRectangle;connectable=0;fillColor=none;top=0;left=0;bottom=0;right=0;editable=1;overflow=hidden;whiteSpace=wrap;html=1;" vertex="1" parent="d_pmFFSRNxV_FL6ECNN5-58">
          <mxGeometry width="30" height="30" as="geometry">
            <mxRectangle width="30" height="30" as="alternateBounds" />
          </mxGeometry>
        </mxCell>
        <mxCell id="d_pmFFSRNxV_FL6ECNN5-60" value="Location" style="shape=partialRectangle;connectable=0;fillColor=none;top=0;left=0;bottom=0;right=0;align=left;spacingLeft=6;overflow=hidden;whiteSpace=wrap;html=1;" vertex="1" parent="d_pmFFSRNxV_FL6ECNN5-58">
          <mxGeometry x="30" width="150" height="30" as="geometry">
            <mxRectangle width="150" height="30" as="alternateBounds" />
          </mxGeometry>
        </mxCell>
        <mxCell id="d_pmFFSRNxV_FL6ECNN5-61" value="" style="shape=tableRow;horizontal=0;startSize=0;swimlaneHead=0;swimlaneBody=0;fillColor=none;collapsible=0;dropTarget=0;points=[[0,0.5],[1,0.5]];portConstraint=eastwest;top=0;left=0;right=0;bottom=0;" vertex="1" parent="d_pmFFSRNxV_FL6ECNN5-51">
          <mxGeometry y="120" width="180" height="30" as="geometry" />
        </mxCell>
        <mxCell id="d_pmFFSRNxV_FL6ECNN5-62" value="" style="shape=partialRectangle;connectable=0;fillColor=none;top=0;left=0;bottom=0;right=0;editable=1;overflow=hidden;whiteSpace=wrap;html=1;" vertex="1" parent="d_pmFFSRNxV_FL6ECNN5-61">
          <mxGeometry width="30" height="30" as="geometry">
            <mxRectangle width="30" height="30" as="alternateBounds" />
          </mxGeometry>
        </mxCell>
        <mxCell id="d_pmFFSRNxV_FL6ECNN5-63" value="&lt;font style=&quot;color: rgb(0, 0, 153);&quot;&gt;&lt;b&gt;Manager-ID&lt;/b&gt;&lt;/font&gt;" style="shape=partialRectangle;connectable=0;fillColor=none;top=0;left=0;bottom=0;right=0;align=left;spacingLeft=6;overflow=hidden;whiteSpace=wrap;html=1;" vertex="1" parent="d_pmFFSRNxV_FL6ECNN5-61">
          <mxGeometry x="30" width="150" height="30" as="geometry">
            <mxRectangle width="150" height="30" as="alternateBounds" />
          </mxGeometry>
        </mxCell>
        <mxCell id="d_pmFFSRNxV_FL6ECNN5-64" value="&lt;font style=&quot;font-size: 16px;&quot;&gt;Employees&lt;/font&gt;" style="shape=table;startSize=30;container=1;collapsible=1;childLayout=tableLayout;fixedRows=1;rowLines=0;fontStyle=1;align=center;resizeLast=1;html=1;strokeWidth=2;fillColor=#a20025;fontColor=#ffffff;strokeColor=#6F0000;" vertex="1" parent="1">
          <mxGeometry x="1470" y="720" width="180" height="150" as="geometry" />
        </mxCell>
        <mxCell id="d_pmFFSRNxV_FL6ECNN5-65" value="" style="shape=tableRow;horizontal=0;startSize=0;swimlaneHead=0;swimlaneBody=0;fillColor=none;collapsible=0;dropTarget=0;points=[[0,0.5],[1,0.5]];portConstraint=eastwest;top=0;left=0;right=0;bottom=1;" vertex="1" parent="d_pmFFSRNxV_FL6ECNN5-64">
          <mxGeometry y="30" width="180" height="30" as="geometry" />
        </mxCell>
        <mxCell id="d_pmFFSRNxV_FL6ECNN5-66" value="PK" style="shape=partialRectangle;connectable=0;fillColor=none;top=0;left=0;bottom=0;right=0;fontStyle=1;overflow=hidden;whiteSpace=wrap;html=1;" vertex="1" parent="d_pmFFSRNxV_FL6ECNN5-65">
          <mxGeometry width="30" height="30" as="geometry">
            <mxRectangle width="30" height="30" as="alternateBounds" />
          </mxGeometry>
        </mxCell>
        <mxCell id="d_pmFFSRNxV_FL6ECNN5-67" value="Emp-ID" style="shape=partialRectangle;connectable=0;fillColor=none;top=0;left=0;bottom=0;right=0;align=left;spacingLeft=6;fontStyle=5;overflow=hidden;whiteSpace=wrap;html=1;" vertex="1" parent="d_pmFFSRNxV_FL6ECNN5-65">
          <mxGeometry x="30" width="150" height="30" as="geometry">
            <mxRectangle width="150" height="30" as="alternateBounds" />
          </mxGeometry>
        </mxCell>
        <mxCell id="d_pmFFSRNxV_FL6ECNN5-68" value="" style="shape=tableRow;horizontal=0;startSize=0;swimlaneHead=0;swimlaneBody=0;fillColor=none;collapsible=0;dropTarget=0;points=[[0,0.5],[1,0.5]];portConstraint=eastwest;top=0;left=0;right=0;bottom=0;" vertex="1" parent="d_pmFFSRNxV_FL6ECNN5-64">
          <mxGeometry y="60" width="180" height="30" as="geometry" />
        </mxCell>
        <mxCell id="d_pmFFSRNxV_FL6ECNN5-69" value="" style="shape=partialRectangle;connectable=0;fillColor=none;top=0;left=0;bottom=0;right=0;editable=1;overflow=hidden;whiteSpace=wrap;html=1;" vertex="1" parent="d_pmFFSRNxV_FL6ECNN5-68">
          <mxGeometry width="30" height="30" as="geometry">
            <mxRectangle width="30" height="30" as="alternateBounds" />
          </mxGeometry>
        </mxCell>
        <mxCell id="d_pmFFSRNxV_FL6ECNN5-70" value="Emp-ID" style="shape=partialRectangle;connectable=0;fillColor=none;top=0;left=0;bottom=0;right=0;align=left;spacingLeft=6;overflow=hidden;whiteSpace=wrap;html=1;" vertex="1" parent="d_pmFFSRNxV_FL6ECNN5-68">
          <mxGeometry x="30" width="150" height="30" as="geometry">
            <mxRectangle width="150" height="30" as="alternateBounds" />
          </mxGeometry>
        </mxCell>
        <mxCell id="d_pmFFSRNxV_FL6ECNN5-71" value="" style="shape=tableRow;horizontal=0;startSize=0;swimlaneHead=0;swimlaneBody=0;fillColor=none;collapsible=0;dropTarget=0;points=[[0,0.5],[1,0.5]];portConstraint=eastwest;top=0;left=0;right=0;bottom=0;" vertex="1" parent="d_pmFFSRNxV_FL6ECNN5-64">
          <mxGeometry y="90" width="180" height="30" as="geometry" />
        </mxCell>
        <mxCell id="d_pmFFSRNxV_FL6ECNN5-72" value="" style="shape=partialRectangle;connectable=0;fillColor=none;top=0;left=0;bottom=0;right=0;editable=1;overflow=hidden;whiteSpace=wrap;html=1;" vertex="1" parent="d_pmFFSRNxV_FL6ECNN5-71">
          <mxGeometry width="30" height="30" as="geometry">
            <mxRectangle width="30" height="30" as="alternateBounds" />
          </mxGeometry>
        </mxCell>
        <mxCell id="d_pmFFSRNxV_FL6ECNN5-73" value="Name" style="shape=partialRectangle;connectable=0;fillColor=none;top=0;left=0;bottom=0;right=0;align=left;spacingLeft=6;overflow=hidden;whiteSpace=wrap;html=1;" vertex="1" parent="d_pmFFSRNxV_FL6ECNN5-71">
          <mxGeometry x="30" width="150" height="30" as="geometry">
            <mxRectangle width="150" height="30" as="alternateBounds" />
          </mxGeometry>
        </mxCell>
        <mxCell id="d_pmFFSRNxV_FL6ECNN5-74" value="" style="shape=tableRow;horizontal=0;startSize=0;swimlaneHead=0;swimlaneBody=0;fillColor=none;collapsible=0;dropTarget=0;points=[[0,0.5],[1,0.5]];portConstraint=eastwest;top=0;left=0;right=0;bottom=0;" vertex="1" parent="d_pmFFSRNxV_FL6ECNN5-64">
          <mxGeometry y="120" width="180" height="30" as="geometry" />
        </mxCell>
        <mxCell id="d_pmFFSRNxV_FL6ECNN5-75" value="" style="shape=partialRectangle;connectable=0;fillColor=none;top=0;left=0;bottom=0;right=0;editable=1;overflow=hidden;whiteSpace=wrap;html=1;" vertex="1" parent="d_pmFFSRNxV_FL6ECNN5-74">
          <mxGeometry width="30" height="30" as="geometry">
            <mxRectangle width="30" height="30" as="alternateBounds" />
          </mxGeometry>
        </mxCell>
        <mxCell id="d_pmFFSRNxV_FL6ECNN5-76" value="&lt;b&gt;&lt;font style=&quot;color: rgb(0, 0, 153);&quot;&gt;Office-Number&lt;/font&gt;&lt;/b&gt;" style="shape=partialRectangle;connectable=0;fillColor=none;top=0;left=0;bottom=0;right=0;align=left;spacingLeft=6;overflow=hidden;whiteSpace=wrap;html=1;" vertex="1" parent="d_pmFFSRNxV_FL6ECNN5-74">
          <mxGeometry x="30" width="150" height="30" as="geometry">
            <mxRectangle width="150" height="30" as="alternateBounds" />
          </mxGeometry>
        </mxCell>
        <mxCell id="d_pmFFSRNxV_FL6ECNN5-77" value="&lt;font style=&quot;font-size: 16px;&quot;&gt;Owners&lt;/font&gt;" style="shape=table;startSize=30;container=1;collapsible=1;childLayout=tableLayout;fixedRows=1;rowLines=0;fontStyle=1;align=center;resizeLast=1;html=1;strokeWidth=2;fillColor=#6d8764;fontColor=#ffffff;strokeColor=#3A5431;" vertex="1" parent="1">
          <mxGeometry x="860" y="500" width="180" height="120" as="geometry" />
        </mxCell>
        <mxCell id="d_pmFFSRNxV_FL6ECNN5-78" value="" style="shape=tableRow;horizontal=0;startSize=0;swimlaneHead=0;swimlaneBody=0;fillColor=none;collapsible=0;dropTarget=0;points=[[0,0.5],[1,0.5]];portConstraint=eastwest;top=0;left=0;right=0;bottom=1;" vertex="1" parent="d_pmFFSRNxV_FL6ECNN5-77">
          <mxGeometry y="30" width="180" height="30" as="geometry" />
        </mxCell>
        <mxCell id="d_pmFFSRNxV_FL6ECNN5-79" value="PK" style="shape=partialRectangle;connectable=0;fillColor=none;top=0;left=0;bottom=0;right=0;fontStyle=1;overflow=hidden;whiteSpace=wrap;html=1;" vertex="1" parent="d_pmFFSRNxV_FL6ECNN5-78">
          <mxGeometry width="30" height="30" as="geometry">
            <mxRectangle width="30" height="30" as="alternateBounds" />
          </mxGeometry>
        </mxCell>
        <mxCell id="d_pmFFSRNxV_FL6ECNN5-80" value="Owner-ID" style="shape=partialRectangle;connectable=0;fillColor=none;top=0;left=0;bottom=0;right=0;align=left;spacingLeft=6;fontStyle=5;overflow=hidden;whiteSpace=wrap;html=1;" vertex="1" parent="d_pmFFSRNxV_FL6ECNN5-78">
          <mxGeometry x="30" width="150" height="30" as="geometry">
            <mxRectangle width="150" height="30" as="alternateBounds" />
          </mxGeometry>
        </mxCell>
        <mxCell id="d_pmFFSRNxV_FL6ECNN5-81" value="" style="shape=tableRow;horizontal=0;startSize=0;swimlaneHead=0;swimlaneBody=0;fillColor=none;collapsible=0;dropTarget=0;points=[[0,0.5],[1,0.5]];portConstraint=eastwest;top=0;left=0;right=0;bottom=0;" vertex="1" parent="d_pmFFSRNxV_FL6ECNN5-77">
          <mxGeometry y="60" width="180" height="30" as="geometry" />
        </mxCell>
        <mxCell id="d_pmFFSRNxV_FL6ECNN5-82" value="" style="shape=partialRectangle;connectable=0;fillColor=none;top=0;left=0;bottom=0;right=0;editable=1;overflow=hidden;whiteSpace=wrap;html=1;" vertex="1" parent="d_pmFFSRNxV_FL6ECNN5-81">
          <mxGeometry width="30" height="30" as="geometry">
            <mxRectangle width="30" height="30" as="alternateBounds" />
          </mxGeometry>
        </mxCell>
        <mxCell id="d_pmFFSRNxV_FL6ECNN5-83" value="Owner-ID" style="shape=partialRectangle;connectable=0;fillColor=none;top=0;left=0;bottom=0;right=0;align=left;spacingLeft=6;overflow=hidden;whiteSpace=wrap;html=1;" vertex="1" parent="d_pmFFSRNxV_FL6ECNN5-81">
          <mxGeometry x="30" width="150" height="30" as="geometry">
            <mxRectangle width="150" height="30" as="alternateBounds" />
          </mxGeometry>
        </mxCell>
        <mxCell id="d_pmFFSRNxV_FL6ECNN5-84" value="" style="shape=tableRow;horizontal=0;startSize=0;swimlaneHead=0;swimlaneBody=0;fillColor=none;collapsible=0;dropTarget=0;points=[[0,0.5],[1,0.5]];portConstraint=eastwest;top=0;left=0;right=0;bottom=0;" vertex="1" parent="d_pmFFSRNxV_FL6ECNN5-77">
          <mxGeometry y="90" width="180" height="30" as="geometry" />
        </mxCell>
        <mxCell id="d_pmFFSRNxV_FL6ECNN5-85" value="" style="shape=partialRectangle;connectable=0;fillColor=none;top=0;left=0;bottom=0;right=0;editable=1;overflow=hidden;whiteSpace=wrap;html=1;" vertex="1" parent="d_pmFFSRNxV_FL6ECNN5-84">
          <mxGeometry width="30" height="30" as="geometry">
            <mxRectangle width="30" height="30" as="alternateBounds" />
          </mxGeometry>
        </mxCell>
        <mxCell id="d_pmFFSRNxV_FL6ECNN5-86" value="Name" style="shape=partialRectangle;connectable=0;fillColor=none;top=0;left=0;bottom=0;right=0;align=left;spacingLeft=6;overflow=hidden;whiteSpace=wrap;html=1;" vertex="1" parent="d_pmFFSRNxV_FL6ECNN5-84">
          <mxGeometry x="30" width="150" height="30" as="geometry">
            <mxRectangle width="150" height="30" as="alternateBounds" />
          </mxGeometry>
        </mxCell>
        <mxCell id="d_pmFFSRNxV_FL6ECNN5-87" value="&lt;font style=&quot;font-size: 16px;&quot;&gt;Properties&lt;/font&gt;" style="shape=table;startSize=30;container=1;collapsible=1;childLayout=tableLayout;fixedRows=1;rowLines=0;fontStyle=1;align=center;resizeLast=1;html=1;strokeWidth=2;fillColor=#76608a;fontColor=#ffffff;strokeColor=#432D57;" vertex="1" parent="1">
          <mxGeometry x="931" y="670" width="180" height="240" as="geometry" />
        </mxCell>
        <mxCell id="d_pmFFSRNxV_FL6ECNN5-88" value="" style="shape=tableRow;horizontal=0;startSize=0;swimlaneHead=0;swimlaneBody=0;fillColor=none;collapsible=0;dropTarget=0;points=[[0,0.5],[1,0.5]];portConstraint=eastwest;top=0;left=0;right=0;bottom=1;" vertex="1" parent="d_pmFFSRNxV_FL6ECNN5-87">
          <mxGeometry y="30" width="180" height="30" as="geometry" />
        </mxCell>
        <mxCell id="d_pmFFSRNxV_FL6ECNN5-89" value="PK" style="shape=partialRectangle;connectable=0;fillColor=none;top=0;left=0;bottom=0;right=0;fontStyle=1;overflow=hidden;whiteSpace=wrap;html=1;" vertex="1" parent="d_pmFFSRNxV_FL6ECNN5-88">
          <mxGeometry width="30" height="30" as="geometry">
            <mxRectangle width="30" height="30" as="alternateBounds" />
          </mxGeometry>
        </mxCell>
        <mxCell id="d_pmFFSRNxV_FL6ECNN5-90" value="Property-ID" style="shape=partialRectangle;connectable=0;fillColor=none;top=0;left=0;bottom=0;right=0;align=left;spacingLeft=6;fontStyle=5;overflow=hidden;whiteSpace=wrap;html=1;" vertex="1" parent="d_pmFFSRNxV_FL6ECNN5-88">
          <mxGeometry x="30" width="150" height="30" as="geometry">
            <mxRectangle width="150" height="30" as="alternateBounds" />
          </mxGeometry>
        </mxCell>
        <mxCell id="d_pmFFSRNxV_FL6ECNN5-91" value="" style="shape=tableRow;horizontal=0;startSize=0;swimlaneHead=0;swimlaneBody=0;fillColor=none;collapsible=0;dropTarget=0;points=[[0,0.5],[1,0.5]];portConstraint=eastwest;top=0;left=0;right=0;bottom=0;" vertex="1" parent="d_pmFFSRNxV_FL6ECNN5-87">
          <mxGeometry y="60" width="180" height="30" as="geometry" />
        </mxCell>
        <mxCell id="d_pmFFSRNxV_FL6ECNN5-92" value="" style="shape=partialRectangle;connectable=0;fillColor=none;top=0;left=0;bottom=0;right=0;editable=1;overflow=hidden;whiteSpace=wrap;html=1;" vertex="1" parent="d_pmFFSRNxV_FL6ECNN5-91">
          <mxGeometry width="30" height="30" as="geometry">
            <mxRectangle width="30" height="30" as="alternateBounds" />
          </mxGeometry>
        </mxCell>
        <mxCell id="d_pmFFSRNxV_FL6ECNN5-93" value="Property-ID" style="shape=partialRectangle;connectable=0;fillColor=none;top=0;left=0;bottom=0;right=0;align=left;spacingLeft=6;overflow=hidden;whiteSpace=wrap;html=1;" vertex="1" parent="d_pmFFSRNxV_FL6ECNN5-91">
          <mxGeometry x="30" width="150" height="30" as="geometry">
            <mxRectangle width="150" height="30" as="alternateBounds" />
          </mxGeometry>
        </mxCell>
        <mxCell id="d_pmFFSRNxV_FL6ECNN5-94" value="" style="shape=tableRow;horizontal=0;startSize=0;swimlaneHead=0;swimlaneBody=0;fillColor=none;collapsible=0;dropTarget=0;points=[[0,0.5],[1,0.5]];portConstraint=eastwest;top=0;left=0;right=0;bottom=0;" vertex="1" parent="d_pmFFSRNxV_FL6ECNN5-87">
          <mxGeometry y="90" width="180" height="30" as="geometry" />
        </mxCell>
        <mxCell id="d_pmFFSRNxV_FL6ECNN5-95" value="" style="shape=partialRectangle;connectable=0;fillColor=none;top=0;left=0;bottom=0;right=0;editable=1;overflow=hidden;whiteSpace=wrap;html=1;" vertex="1" parent="d_pmFFSRNxV_FL6ECNN5-94">
          <mxGeometry width="30" height="30" as="geometry">
            <mxRectangle width="30" height="30" as="alternateBounds" />
          </mxGeometry>
        </mxCell>
        <mxCell id="d_pmFFSRNxV_FL6ECNN5-96" value="Address" style="shape=partialRectangle;connectable=0;fillColor=none;top=0;left=0;bottom=0;right=0;align=left;spacingLeft=6;overflow=hidden;whiteSpace=wrap;html=1;" vertex="1" parent="d_pmFFSRNxV_FL6ECNN5-94">
          <mxGeometry x="30" width="150" height="30" as="geometry">
            <mxRectangle width="150" height="30" as="alternateBounds" />
          </mxGeometry>
        </mxCell>
        <mxCell id="d_pmFFSRNxV_FL6ECNN5-97" value="" style="shape=tableRow;horizontal=0;startSize=0;swimlaneHead=0;swimlaneBody=0;fillColor=none;collapsible=0;dropTarget=0;points=[[0,0.5],[1,0.5]];portConstraint=eastwest;top=0;left=0;right=0;bottom=0;" vertex="1" parent="d_pmFFSRNxV_FL6ECNN5-87">
          <mxGeometry y="120" width="180" height="30" as="geometry" />
        </mxCell>
        <mxCell id="d_pmFFSRNxV_FL6ECNN5-98" value="" style="shape=partialRectangle;connectable=0;fillColor=none;top=0;left=0;bottom=0;right=0;editable=1;overflow=hidden;whiteSpace=wrap;html=1;" vertex="1" parent="d_pmFFSRNxV_FL6ECNN5-97">
          <mxGeometry width="30" height="30" as="geometry">
            <mxRectangle width="30" height="30" as="alternateBounds" />
          </mxGeometry>
        </mxCell>
        <mxCell id="d_pmFFSRNxV_FL6ECNN5-99" value="City" style="shape=partialRectangle;connectable=0;fillColor=none;top=0;left=0;bottom=0;right=0;align=left;spacingLeft=6;overflow=hidden;whiteSpace=wrap;html=1;" vertex="1" parent="d_pmFFSRNxV_FL6ECNN5-97">
          <mxGeometry x="30" width="150" height="30" as="geometry">
            <mxRectangle width="150" height="30" as="alternateBounds" />
          </mxGeometry>
        </mxCell>
        <mxCell id="d_pmFFSRNxV_FL6ECNN5-100" value="" style="shape=tableRow;horizontal=0;startSize=0;swimlaneHead=0;swimlaneBody=0;fillColor=none;collapsible=0;dropTarget=0;points=[[0,0.5],[1,0.5]];portConstraint=eastwest;top=0;left=0;right=0;bottom=0;" vertex="1" parent="d_pmFFSRNxV_FL6ECNN5-87">
          <mxGeometry y="150" width="180" height="30" as="geometry" />
        </mxCell>
        <mxCell id="d_pmFFSRNxV_FL6ECNN5-101" value="" style="shape=partialRectangle;connectable=0;fillColor=none;top=0;left=0;bottom=0;right=0;editable=1;overflow=hidden;whiteSpace=wrap;html=1;" vertex="1" parent="d_pmFFSRNxV_FL6ECNN5-100">
          <mxGeometry width="30" height="30" as="geometry">
            <mxRectangle width="30" height="30" as="alternateBounds" />
          </mxGeometry>
        </mxCell>
        <mxCell id="d_pmFFSRNxV_FL6ECNN5-102" value="State" style="shape=partialRectangle;connectable=0;fillColor=none;top=0;left=0;bottom=0;right=0;align=left;spacingLeft=6;overflow=hidden;whiteSpace=wrap;html=1;" vertex="1" parent="d_pmFFSRNxV_FL6ECNN5-100">
          <mxGeometry x="30" width="150" height="30" as="geometry">
            <mxRectangle width="150" height="30" as="alternateBounds" />
          </mxGeometry>
        </mxCell>
        <mxCell id="d_pmFFSRNxV_FL6ECNN5-103" value="" style="shape=tableRow;horizontal=0;startSize=0;swimlaneHead=0;swimlaneBody=0;fillColor=none;collapsible=0;dropTarget=0;points=[[0,0.5],[1,0.5]];portConstraint=eastwest;top=0;left=0;right=0;bottom=0;" vertex="1" parent="d_pmFFSRNxV_FL6ECNN5-87">
          <mxGeometry y="180" width="180" height="30" as="geometry" />
        </mxCell>
        <mxCell id="d_pmFFSRNxV_FL6ECNN5-104" value="" style="shape=partialRectangle;connectable=0;fillColor=none;top=0;left=0;bottom=0;right=0;editable=1;overflow=hidden;whiteSpace=wrap;html=1;" vertex="1" parent="d_pmFFSRNxV_FL6ECNN5-103">
          <mxGeometry width="30" height="30" as="geometry">
            <mxRectangle width="30" height="30" as="alternateBounds" />
          </mxGeometry>
        </mxCell>
        <mxCell id="d_pmFFSRNxV_FL6ECNN5-105" value="Zip-Code" style="shape=partialRectangle;connectable=0;fillColor=none;top=0;left=0;bottom=0;right=0;align=left;spacingLeft=6;overflow=hidden;whiteSpace=wrap;html=1;" vertex="1" parent="d_pmFFSRNxV_FL6ECNN5-103">
          <mxGeometry x="30" width="150" height="30" as="geometry">
            <mxRectangle width="150" height="30" as="alternateBounds" />
          </mxGeometry>
        </mxCell>
        <mxCell id="d_pmFFSRNxV_FL6ECNN5-123" value="" style="shape=tableRow;horizontal=0;startSize=0;swimlaneHead=0;swimlaneBody=0;fillColor=none;collapsible=0;dropTarget=0;points=[[0,0.5],[1,0.5]];portConstraint=eastwest;top=0;left=0;right=0;bottom=0;" vertex="1" parent="d_pmFFSRNxV_FL6ECNN5-87">
          <mxGeometry y="210" width="180" height="30" as="geometry" />
        </mxCell>
        <mxCell id="d_pmFFSRNxV_FL6ECNN5-124" value="" style="shape=partialRectangle;connectable=0;fillColor=none;top=0;left=0;bottom=0;right=0;editable=1;overflow=hidden;whiteSpace=wrap;html=1;" vertex="1" parent="d_pmFFSRNxV_FL6ECNN5-123">
          <mxGeometry width="30" height="30" as="geometry">
            <mxRectangle width="30" height="30" as="alternateBounds" />
          </mxGeometry>
        </mxCell>
        <mxCell id="d_pmFFSRNxV_FL6ECNN5-125" value="&lt;font style=&quot;color: rgb(0, 0, 153);&quot;&gt;&lt;b&gt;Office-Numebr&lt;/b&gt;&lt;/font&gt;" style="shape=partialRectangle;connectable=0;fillColor=none;top=0;left=0;bottom=0;right=0;align=left;spacingLeft=6;overflow=hidden;whiteSpace=wrap;html=1;" vertex="1" parent="d_pmFFSRNxV_FL6ECNN5-123">
          <mxGeometry x="30" width="150" height="30" as="geometry">
            <mxRectangle width="150" height="30" as="alternateBounds" />
          </mxGeometry>
        </mxCell>
        <mxCell id="d_pmFFSRNxV_FL6ECNN5-106" value="&lt;font style=&quot;font-size: 16px;&quot;&gt;Owner-Properties&lt;/font&gt;" style="shape=table;startSize=30;container=1;collapsible=1;childLayout=tableLayout;fixedRows=1;rowLines=0;fontStyle=1;align=center;resizeLast=1;html=1;strokeWidth=2;fillColor=#647687;fontColor=#ffffff;strokeColor=#314354;" vertex="1" parent="1">
          <mxGeometry x="1185" y="540" width="205" height="150" as="geometry" />
        </mxCell>
        <mxCell id="d_pmFFSRNxV_FL6ECNN5-107" value="" style="shape=tableRow;horizontal=0;startSize=0;swimlaneHead=0;swimlaneBody=0;fillColor=none;collapsible=0;dropTarget=0;points=[[0,0.5],[1,0.5]];portConstraint=eastwest;top=0;left=0;right=0;bottom=1;" vertex="1" parent="d_pmFFSRNxV_FL6ECNN5-106">
          <mxGeometry y="30" width="205" height="30" as="geometry" />
        </mxCell>
        <mxCell id="d_pmFFSRNxV_FL6ECNN5-108" value="PK" style="shape=partialRectangle;connectable=0;fillColor=none;top=0;left=0;bottom=0;right=0;fontStyle=1;overflow=hidden;whiteSpace=wrap;html=1;" vertex="1" parent="d_pmFFSRNxV_FL6ECNN5-107">
          <mxGeometry width="30" height="30" as="geometry">
            <mxRectangle width="30" height="30" as="alternateBounds" />
          </mxGeometry>
        </mxCell>
        <mxCell id="d_pmFFSRNxV_FL6ECNN5-109" value="Owner-ID, Property-ID" style="shape=partialRectangle;connectable=0;fillColor=none;top=0;left=0;bottom=0;right=0;align=left;spacingLeft=6;fontStyle=5;overflow=hidden;whiteSpace=wrap;html=1;" vertex="1" parent="d_pmFFSRNxV_FL6ECNN5-107">
          <mxGeometry x="30" width="175" height="30" as="geometry">
            <mxRectangle width="175" height="30" as="alternateBounds" />
          </mxGeometry>
        </mxCell>
        <mxCell id="d_pmFFSRNxV_FL6ECNN5-110" value="" style="shape=tableRow;horizontal=0;startSize=0;swimlaneHead=0;swimlaneBody=0;fillColor=none;collapsible=0;dropTarget=0;points=[[0,0.5],[1,0.5]];portConstraint=eastwest;top=0;left=0;right=0;bottom=0;" vertex="1" parent="d_pmFFSRNxV_FL6ECNN5-106">
          <mxGeometry y="60" width="205" height="30" as="geometry" />
        </mxCell>
        <mxCell id="d_pmFFSRNxV_FL6ECNN5-111" value="" style="shape=partialRectangle;connectable=0;fillColor=none;top=0;left=0;bottom=0;right=0;editable=1;overflow=hidden;whiteSpace=wrap;html=1;" vertex="1" parent="d_pmFFSRNxV_FL6ECNN5-110">
          <mxGeometry width="30" height="30" as="geometry">
            <mxRectangle width="30" height="30" as="alternateBounds" />
          </mxGeometry>
        </mxCell>
        <mxCell id="d_pmFFSRNxV_FL6ECNN5-112" value="&lt;b&gt;&lt;font style=&quot;color: rgb(0, 0, 153);&quot;&gt;Owner-ID&lt;/font&gt;&lt;/b&gt;" style="shape=partialRectangle;connectable=0;fillColor=none;top=0;left=0;bottom=0;right=0;align=left;spacingLeft=6;overflow=hidden;whiteSpace=wrap;html=1;" vertex="1" parent="d_pmFFSRNxV_FL6ECNN5-110">
          <mxGeometry x="30" width="175" height="30" as="geometry">
            <mxRectangle width="175" height="30" as="alternateBounds" />
          </mxGeometry>
        </mxCell>
        <mxCell id="d_pmFFSRNxV_FL6ECNN5-113" value="" style="shape=tableRow;horizontal=0;startSize=0;swimlaneHead=0;swimlaneBody=0;fillColor=none;collapsible=0;dropTarget=0;points=[[0,0.5],[1,0.5]];portConstraint=eastwest;top=0;left=0;right=0;bottom=0;" vertex="1" parent="d_pmFFSRNxV_FL6ECNN5-106">
          <mxGeometry y="90" width="205" height="30" as="geometry" />
        </mxCell>
        <mxCell id="d_pmFFSRNxV_FL6ECNN5-114" value="" style="shape=partialRectangle;connectable=0;fillColor=none;top=0;left=0;bottom=0;right=0;editable=1;overflow=hidden;whiteSpace=wrap;html=1;" vertex="1" parent="d_pmFFSRNxV_FL6ECNN5-113">
          <mxGeometry width="30" height="30" as="geometry">
            <mxRectangle width="30" height="30" as="alternateBounds" />
          </mxGeometry>
        </mxCell>
        <mxCell id="d_pmFFSRNxV_FL6ECNN5-115" value="&lt;b&gt;&lt;font style=&quot;color: rgb(0, 0, 153);&quot;&gt;Property-ID&lt;/font&gt;&lt;/b&gt;" style="shape=partialRectangle;connectable=0;fillColor=none;top=0;left=0;bottom=0;right=0;align=left;spacingLeft=6;overflow=hidden;whiteSpace=wrap;html=1;" vertex="1" parent="d_pmFFSRNxV_FL6ECNN5-113">
          <mxGeometry x="30" width="175" height="30" as="geometry">
            <mxRectangle width="175" height="30" as="alternateBounds" />
          </mxGeometry>
        </mxCell>
        <mxCell id="d_pmFFSRNxV_FL6ECNN5-116" value="" style="shape=tableRow;horizontal=0;startSize=0;swimlaneHead=0;swimlaneBody=0;fillColor=none;collapsible=0;dropTarget=0;points=[[0,0.5],[1,0.5]];portConstraint=eastwest;top=0;left=0;right=0;bottom=0;" vertex="1" parent="d_pmFFSRNxV_FL6ECNN5-106">
          <mxGeometry y="120" width="205" height="30" as="geometry" />
        </mxCell>
        <mxCell id="d_pmFFSRNxV_FL6ECNN5-117" value="" style="shape=partialRectangle;connectable=0;fillColor=none;top=0;left=0;bottom=0;right=0;editable=1;overflow=hidden;whiteSpace=wrap;html=1;" vertex="1" parent="d_pmFFSRNxV_FL6ECNN5-116">
          <mxGeometry width="30" height="30" as="geometry">
            <mxRectangle width="30" height="30" as="alternateBounds" />
          </mxGeometry>
        </mxCell>
        <mxCell id="d_pmFFSRNxV_FL6ECNN5-118" value="&lt;font style=&quot;color: rgb(0, 0, 0);&quot;&gt;Percent&lt;/font&gt;" style="shape=partialRectangle;connectable=0;fillColor=none;top=0;left=0;bottom=0;right=0;align=left;spacingLeft=6;overflow=hidden;whiteSpace=wrap;html=1;" vertex="1" parent="d_pmFFSRNxV_FL6ECNN5-116">
          <mxGeometry x="30" width="175" height="30" as="geometry">
            <mxRectangle width="175" height="30" as="alternateBounds" />
          </mxGeometry>
        </mxCell>
        <mxCell id="d_pmFFSRNxV_FL6ECNN5-121" style="edgeStyle=orthogonalEdgeStyle;rounded=0;orthogonalLoop=1;jettySize=auto;html=1;entryX=1;entryY=0.5;entryDx=0;entryDy=0;" edge="1" parent="1" source="d_pmFFSRNxV_FL6ECNN5-113" target="d_pmFFSRNxV_FL6ECNN5-88">
          <mxGeometry relative="1" as="geometry" />
        </mxCell>
        <mxCell id="d_pmFFSRNxV_FL6ECNN5-122" style="edgeStyle=orthogonalEdgeStyle;rounded=0;orthogonalLoop=1;jettySize=auto;html=1;entryX=1;entryY=0.5;entryDx=0;entryDy=0;" edge="1" parent="1" source="d_pmFFSRNxV_FL6ECNN5-110" target="d_pmFFSRNxV_FL6ECNN5-78">
          <mxGeometry relative="1" as="geometry" />
        </mxCell>
        <mxCell id="d_pmFFSRNxV_FL6ECNN5-126" style="edgeStyle=orthogonalEdgeStyle;rounded=0;orthogonalLoop=1;jettySize=auto;html=1;entryX=1;entryY=0.5;entryDx=0;entryDy=0;" edge="1" parent="1" source="d_pmFFSRNxV_FL6ECNN5-74" target="d_pmFFSRNxV_FL6ECNN5-52">
          <mxGeometry relative="1" as="geometry" />
        </mxCell>
        <mxCell id="d_pmFFSRNxV_FL6ECNN5-130" style="edgeStyle=orthogonalEdgeStyle;rounded=0;orthogonalLoop=1;jettySize=auto;html=1;entryX=0;entryY=0.5;entryDx=0;entryDy=0;" edge="1" parent="1" source="d_pmFFSRNxV_FL6ECNN5-61" target="d_pmFFSRNxV_FL6ECNN5-65">
          <mxGeometry relative="1" as="geometry" />
        </mxCell>
        <mxCell id="d_pmFFSRNxV_FL6ECNN5-131" style="edgeStyle=orthogonalEdgeStyle;rounded=0;orthogonalLoop=1;jettySize=auto;html=1;entryX=0;entryY=0.5;entryDx=0;entryDy=0;" edge="1" parent="1" source="d_pmFFSRNxV_FL6ECNN5-123" target="d_pmFFSRNxV_FL6ECNN5-52">
          <mxGeometry relative="1" as="geometry" />
        </mxCell>
      </root>
    </mxGraphModel>
  </diagram>
</mxfile>
